# Blender v2.93.2 OBJ File: 'piano1.blend'
# www.blender.org
mtllib piano_klapa.mtl
o BabyGrandPiano1.012_BabyGrandPiano1.198
v 24.854893 43.736958 1.501451
v 26.302898 42.875301 -0.276285
v 23.349194 44.569420 3.219054
v 24.854893 43.311771 1.707526
v 26.302898 42.450115 -0.070210
v 23.349194 44.144230 3.425128
v 26.913692 41.615494 -1.792214
v 21.728397 44.918404 5.022350
v 21.728397 45.343590 4.816277
v 19.934692 45.604984 6.438971
v 19.934692 46.030170 6.232898
v 17.910591 46.174873 7.614741
v 15.598491 46.598873 8.489534
v 17.910591 46.600056 7.408669
v 15.598491 47.023964 8.283472
v 26.913692 42.040680 -1.998289
v 12.940791 47.272995 8.797135
v 10.356791 47.450119 9.162564
v 16.409294 30.538654 -25.729620
v 21.491093 31.763500 -23.202442
v 25.387592 33.795811 -19.009281
v 27.547497 36.747543 -12.919155
v 28.054493 39.216850 -7.824489
v 27.455296 41.174053 -3.786269
v 12.940791 46.847797 9.003110
v 10.356791 47.024933 9.368637
v 16.409294 30.113457 -25.523647
v 21.491093 31.338413 -22.996380
v 25.387592 33.370724 -18.803219
v 27.547497 36.322456 -12.713093
v 28.054493 38.791653 -7.618514
v 27.455296 40.748955 -3.580305
v 27.858593 39.818317 -5.500343
v 27.858593 40.243404 -5.706407
v 27.973797 37.637074 -10.000706
v 27.973797 38.062263 -10.206783
v 26.706196 34.815800 -15.821642
v 26.706196 35.240986 -16.027718
v 23.624592 32.228386 -21.160130
v 23.624592 32.653473 -21.366192
v 19.061295 30.650303 -24.416157
v 19.061295 31.075390 -24.622225
v 13.609092 29.677710 -26.422766
v 10.734893 29.292339 -27.217882
v 13.609092 30.102798 -26.628828
v 10.734893 29.717426 -27.423950
v -20.985806 29.092690 -28.713015
v -20.985806 29.406654 -28.065176
v -20.985806 54.113861 22.911406
v -20.985806 54.329269 23.356035
v -12.899608 54.376816 23.453997
v -11.322509 54.315483 23.327494
v -9.875109 54.205048 23.099575
v -8.505609 54.065033 22.810760
v -7.258708 53.859348 22.386440
v -6.078008 53.516457 21.679043
v -4.805909 52.929329 20.467543
v -3.381309 51.935059 18.416214
v -1.842408 50.866417 16.211277
v -0.275208 50.087254 14.603607
v 1.308892 49.481674 13.354298
v 3.014491 48.870342 12.093008
v 5.154490 48.225849 10.763243
v 8.250793 47.673038 9.622614
v 6.543292 47.934196 10.161371
v 8.250793 47.247944 9.828578
v 6.543292 47.509010 10.367447
v 5.154490 47.800762 10.969309
v 4.004790 48.115356 11.618387
v 4.004790 48.540543 11.412315
v 3.014491 48.445259 12.299070
v 2.103791 48.782799 12.995455
v 2.103791 49.207886 12.789391
v 1.308892 49.056591 13.560360
v 0.515491 49.344803 14.155151
v 0.515491 49.769989 13.949072
v -0.275208 49.662064 14.809584
v -1.061608 50.022701 15.553762
v -1.061608 50.447887 15.347683
v -1.842408 50.441223 16.417250
v -2.616109 50.932182 17.430229
v -2.616109 51.357368 17.224155
v -3.381309 51.509972 18.622280
v -4.116509 52.068134 19.773922
v -4.116509 52.493324 19.567850
v -4.805909 52.504242 20.673607
v -5.457208 52.838486 21.363293
v -5.457208 53.263680 21.157318
v -6.078008 53.091354 21.885008
v -6.676009 53.283157 22.280796
v -6.676009 53.708344 22.074724
v -7.258708 53.434265 22.592503
v -7.833808 53.564980 22.862270
v -7.833808 53.990166 22.656195
v -8.505609 53.639847 23.016834
v -9.183808 53.712379 23.166307
v -9.183808 54.137470 22.960245
v -9.875109 53.779858 23.305649
v -10.585809 53.840038 23.429754
v -10.585809 54.265228 23.223682
v -11.322509 53.890400 23.533564
v -12.091607 53.928398 23.611988
v -12.091607 54.353497 23.406023
v -12.899608 53.951630 23.660070
v -20.985806 54.009521 23.779486
v -20.985806 54.434708 23.573414
v -20.985806 53.904182 23.562107
v -20.985806 53.695568 23.131750
v -20.985806 54.120754 22.925676
v -20.985806 53.688675 23.117479
v -20.985806 28.996243 -27.828751
v -20.985806 29.421436 -28.034725
v -20.985806 28.981556 -27.859211
v -20.985806 28.772942 -28.289564
v -20.985806 29.198027 -28.495630
v -20.985806 28.667503 -28.506937
vt 1.000000 1.000000
vt 1.000000 1.000000
vt 1.000000 1.000000
vt 1.000000 1.000000
vt 1.000000 1.000000
vt 1.000000 1.000000
vt 1.000000 1.000000
vt 1.000000 1.000000
vt 1.000000 1.000000
vt 1.000000 1.000000
vt 1.000000 1.000000
vt 1.000000 1.000000
vt 1.000000 1.000000
vt 1.000000 1.000000
vt 1.000000 1.000000
vt 1.000000 1.000000
vt 1.000000 1.000000
vt 1.000000 1.000000
vt 1.000000 1.000000
vt 1.000000 1.000000
vt 1.000000 1.000000
vt 1.000000 1.000000
vt 1.000000 1.000000
vt 1.000000 1.000000
vt 1.000000 1.000000
vt 1.000000 1.000000
vt 1.000000 1.000000
vt 1.000000 1.000000
vt 1.000000 1.000000
vt 1.000000 1.000000
vt 1.000000 1.000000
vt 1.000000 1.000000
vt 1.000000 1.000000
vt 1.000000 1.000000
vt 1.000000 1.000000
vt 1.000000 1.000000
vt 1.000000 1.000000
vt 1.000000 1.000000
vt 1.000000 1.000000
vt 1.000000 1.000000
vt 1.000000 1.000000
vt 1.000000 1.000000
vt 1.000000 1.000000
vt 1.000000 1.000000
vt 1.000000 1.000000
vt 1.000000 1.000000
vt 1.000000 1.000000
vt 1.000000 1.000000
vt 1.000000 1.000000
vt 1.000000 1.000000
vt 1.000000 1.000000
vt 1.000000 1.000000
vt 1.000000 1.000000
vt 1.000000 1.000000
vt 1.000000 1.000000
vt 1.000000 1.000000
vt 1.000000 1.000000
vt 1.000000 1.000000
vt 1.000000 1.000000
vt 1.000000 1.000000
vt 1.000000 1.000000
vt 1.000000 1.000000
vt 1.000000 1.000000
vt 1.000000 1.000000
vt 1.000000 1.000000
vt 1.000000 1.000000
vt 1.000000 1.000000
vt 1.000000 1.000000
vt 1.000000 1.000000
vt 1.000000 1.000000
vt 1.000000 1.000000
vt 1.000000 1.000000
vt 1.000000 1.000000
vt 1.000000 1.000000
vt 1.000000 1.000000
vt 1.000000 1.000000
vt 1.000000 1.000000
vt 1.000000 1.000000
vt 1.000000 1.000000
vt 1.000000 1.000000
vt 1.000000 1.000000
vt 1.000000 1.000000
vt 1.000000 1.000000
vt 1.000000 1.000000
vt 1.000000 1.000000
vt 1.000000 1.000000
vt 1.000000 1.000000
vt 1.000000 1.000000
vt 1.000000 1.000000
vt 1.000000 1.000000
vt 1.000000 1.000000
vt 1.000000 1.000000
vt 1.000000 1.000000
vt 1.000000 1.000000
vt 1.000000 1.000000
vt 1.000000 1.000000
vt 1.000000 1.000000
vt 1.000000 1.000000
vt 1.000000 1.000000
vt 1.000000 1.000000
vt 1.000000 1.000000
vt 1.000000 1.000000
vt 1.000000 1.000000
vt 1.000000 1.000000
vt 1.000000 1.000000
vt 1.000000 1.000000
vt 1.000000 1.000000
vt 1.000000 1.000000
vt 1.000000 1.000000
vt 1.000000 1.000000
vt 1.000000 1.000000
vt 1.000000 1.000000
vt 1.000000 1.000000
vt 1.000000 1.000000
vt 1.000000 1.000000
vt 1.000000 1.000000
vn 0.8912 0.1978 0.4081
vn 0.7960 0.2640 0.5447
vn -0.0001 0.8999 -0.4362
vn -0.0000 0.8999 -0.4362
vn 0.7623 0.2823 0.5824
vn -0.0000 -0.8999 0.4361
vn 0.0001 -0.8999 0.4362
vn -0.0000 -0.8999 0.4362
vn 0.0001 -0.8998 0.4363
vn 0.7001 0.3114 0.6426
vn 0.6026 0.3481 0.7181
vn 0.4668 0.3857 0.7958
vn 0.3001 0.4161 0.8584
vn 0.0000 0.8999 -0.4361
vn 0.1827 0.4286 0.8848
vn 0.1957 0.4277 0.8825
vn 0.9745 0.0979 0.2021
vn 0.9589 0.1237 0.2552
vn 0.9909 0.0587 0.1210
vn 0.9997 0.0115 0.0237
vn 0.9997 0.0115 0.0236
vn 0.9963 -0.0372 -0.0768
vn 0.9821 -0.0822 -0.1697
vn 0.9527 -0.1326 -0.2735
vn 0.8844 -0.2036 -0.4200
vn 0.7648 -0.2810 -0.5797
vn 0.6206 -0.3420 -0.7056
vn 0.4840 -0.3817 -0.7874
vn 0.3789 -0.4035 -0.8328
vn 0.3150 -0.4140 -0.8540
vn 0.1708 -0.4298 -0.8866
vn 0.0451 -0.4357 -0.8990
vn 0.0000 0.8997 -0.4364
vn 0.0020 0.9003 -0.4352
vn 0.0006 0.9000 -0.4359
vn 0.0000 0.8998 -0.4363
vn 0.2838 0.4181 0.8629
vn 0.3830 0.4029 0.8313
vn 0.4834 0.3818 0.7877
vn 0.5698 0.3584 0.7395
vn 0.4834 0.3819 0.7877
vn 0.6275 0.3396 0.7007
vn 0.0003 -0.8997 0.4365
vn 0.6338 0.3374 0.6961
vn 0.6275 0.3396 0.7006
vn 0.6300 0.3388 0.6988
vn -0.0001 -0.8999 0.4361
vn 0.6587 0.3281 0.6771
vn 0.7012 0.3108 0.6416
vn 0.6587 0.3282 0.6771
vn 0.7507 0.2881 0.5945
vn 0.8005 0.2617 0.5391
vn 0.8006 0.2613 0.5393
vn 0.8457 0.2328 0.4803
vn 0.8665 0.2177 0.4492
vn -0.0005 -0.9000 0.4359
vn 0.8459 0.2326 0.4800
vn 0.7936 0.2654 0.5475
vn -0.0002 -0.9000 0.4360
vn 0.7235 0.3010 0.6213
vn 0.6386 0.3355 0.6925
vn 0.6386 0.3356 0.6925
vn 0.5524 0.3636 0.7501
vn -0.0004 -0.9002 0.4355
vn 0.4868 0.3810 0.7860
vn 0.5524 0.3636 0.7502
vn 0.3573 0.4074 0.8405
vn 0.2428 0.4231 0.8729
vn 0.0021 -0.8965 0.4431
vn 0.2283 0.4247 0.8761
vn 0.2046 0.4269 0.8808
vn -0.0002 -0.8999 0.4361
vn 0.1726 0.4296 0.8864
vn 0.2045 0.4269 0.8809
vn 0.1337 0.4323 0.8918
vn 0.0893 0.4343 0.8963
vn 0.0002 -0.8991 0.4378
vn 0.0412 0.4358 0.8991
vn 0.0164 0.4361 0.8998
vn -1.0000 -0.0000 0.0000
vn -0.0003 -0.8999 0.4360
vn -1.0000 -0.0001 0.0000
vn -1.0000 0.0001 0.0000
vn 0.0000 -0.9003 0.4352
vn -0.0020 -0.9003 0.4353
vn -0.0000 -0.8998 0.4363
vn 0.0000 -0.9003 0.4353
vn -0.0001 0.8998 -0.4363
vn 0.0003 0.9011 -0.4336
vn -0.0006 0.8987 -0.4386
vn -0.0002 0.8996 -0.4367
vn -0.0013 0.8990 -0.4379
vn -0.0008 0.8996 -0.4368
vn -0.0010 0.8996 -0.4368
vn -0.0004 0.8996 -0.4368
vn -0.0000 -0.8997 0.4364
usemtl wire_000000000.001
s 1
f 2/1/1 4/2/2 5/3/1
f 1/4/3 16/5/4 3/6/4
f 3/6/5 4/2/2 1/4/2
f 7/7/6 4/2/7 6/8/8
f 10/9/6 6/8/8 8/10/9
f 3/6/5 8/10/10 6/8/5
f 11/11/11 8/10/10 9/12/10
f 11/11/11 12/13/12 10/9/11
f 13/14/8 10/9/6 12/13/8
f 15/15/13 12/13/12 14/16/12
f 15/15/14 11/11/4 16/5/4
f 16/5/4 17/17/14 15/15/14
f 15/15/13 25/18/15 13/14/13
f 17/17/15 26/19/16 25/18/15
f 19/20/14 18/21/14 17/17/14
f 42/22/14 17/17/14 20/23/14
f 20/23/14 21/24/4 40/25/4
f 38/26/4 17/17/14 22/27/14
f 36/28/4 17/17/14 23/29/14
f 34/30/14 17/17/14 24/31/4
f 26/19/6 27/32/6 25/18/6
f 25/18/6 41/33/6 28/34/6
f 28/34/6 29/35/6 25/18/6
f 25/18/6 37/36/6 30/37/8
f 25/18/6 35/38/6 31/39/6
f 25/18/6 33/40/8 32/41/8
f 25/18/6 7/7/6 13/14/8
f 24/31/17 7/7/18 32/41/17
f 34/30/19 32/41/17 33/40/19
f 23/29/20 33/40/19 31/39/21
f 36/28/22 31/39/21 35/38/22
f 36/28/22 30/37/23 22/27/23
f 22/27/23 37/36/24 38/26/24
f 38/26/24 29/35/25 21/24/25
f 21/24/25 39/42/26 40/25/26
f 40/25/26 28/34/27 20/23/27
f 20/23/27 41/33/28 42/22/28
f 19/20/29 41/33/28 27/32/29
f 45/43/30 27/32/29 43/44/30
f 45/43/30 44/45/31 46/46/31
f 26/19/6 44/45/6 43/44/6
f 46/46/14 18/21/14 45/43/14
f 47/47/32 44/45/31 116/48/32
f 46/46/14 115/49/14 48/50/33
f 46/46/14 112/51/33 49/52/34
f 46/46/14 109/53/35 50/54/36
f 50/54/36 51/55/14 46/46/14
f 51/55/14 52/56/14 46/46/14
f 52/56/14 53/57/4 46/46/14
f 46/46/14 97/58/14 54/59/4
f 54/59/4 55/60/4 46/46/14
f 55/60/4 56/61/4 46/46/14
f 56/61/4 57/62/3 46/46/14
f 57/62/3 58/63/14 46/46/14
f 46/46/14 82/64/3 59/65/14
f 46/46/14 79/66/4 60/67/14
f 46/46/14 76/68/14 61/69/14
f 61/69/14 62/70/4 46/46/14
f 46/46/14 70/71/3 63/72/14
f 46/46/14 65/73/4 64/74/14
f 64/74/37 67/75/38 66/76/37
f 18/21/16 66/76/37 26/19/16
f 67/75/6 44/45/6 66/76/8
f 63/72/39 67/75/38 65/73/38
f 69/77/6 44/45/6 68/78/6
f 63/72/39 69/77/40 68/78/41
f 62/70/42 69/77/40 70/71/40
f 74/79/7 71/80/6 72/81/43
f 73/82/44 71/80/45 62/70/42
f 61/69/46 72/81/44 73/82/44
f 75/83/47 44/45/6 74/79/7
f 76/68/48 74/79/46 61/69/46
f 76/68/48 77/84/49 75/83/50
f 60/67/49 78/85/51 77/84/49
f 78/85/6 44/45/6 77/84/8
f 79/66/51 80/86/52 78/85/51
f 81/87/47 44/45/6 80/86/8
f 59/65/53 81/87/54 80/86/52
f 58/63/55 81/87/54 82/64/54
f 86/88/6 83/89/47 84/90/56
f 85/91/57 83/89/55 58/63/55
f 57/62/58 84/90/57 85/91/57
f 89/92/6 86/88/6 87/93/59
f 57/62/58 87/93/60 86/88/58
f 88/94/60 89/92/61 87/93/60
f 56/61/62 90/95/63 89/92/61
f 92/96/8 89/92/6 90/95/64
f 55/60/65 90/95/63 91/97/66
f 95/98/8 92/96/8 93/99/7
f 55/60/65 93/99/67 92/96/65
f 54/59/68 93/99/67 94/100/67
f 98/101/8 95/98/8 96/102/69
f 54/59/68 96/102/70 95/98/68
f 53/57/71 96/102/70 97/58/70
f 101/103/8 98/101/8 99/104/72
f 53/57/71 99/104/73 98/101/74
f 52/56/75 99/104/73 100/105/73
f 103/106/76 101/103/75 52/56/75
f 104/107/8 101/103/8 102/108/77
f 103/106/76 104/107/78 102/108/76
f 107/109/6 104/107/8 105/110/6
f 51/55/78 105/110/79 104/107/78
f 50/54/80 105/110/80 106/111/80
f 108/112/81 44/45/6 107/109/6
f 50/54/80 108/112/82 107/109/80
f 109/53/83 110/113/80 108/112/82
f 111/114/84 44/45/6 110/113/85
f 112/51/80 110/113/80 49/52/83
f 112/51/80 113/115/80 111/114/80
f 114/116/86 44/45/6 113/115/87
f 115/49/80 113/115/80 48/50/80
f 47/47/80 114/116/80 115/49/80
f 16/5/18 5/3/1 7/7/18
f 11/11/4 3/6/4 16/5/4
f 2/1/1 1/4/2 4/2/2
f 1/4/3 2/1/4 16/5/4
f 3/6/5 6/8/5 4/2/2
f 7/7/6 5/3/8 4/2/7
f 10/9/6 7/7/6 6/8/8
f 3/6/5 9/12/10 8/10/10
f 11/11/11 10/9/11 8/10/10
f 11/11/11 14/16/12 12/13/12
f 13/14/8 7/7/6 10/9/6
f 15/15/13 13/14/13 12/13/12
f 15/15/14 14/16/88 11/11/4
f 16/5/4 24/31/4 17/17/14
f 15/15/13 17/17/15 25/18/15
f 17/17/15 18/21/16 26/19/16
f 19/20/14 45/43/14 18/21/14
f 42/22/14 19/20/14 17/17/14
f 20/23/14 17/17/14 21/24/4
f 38/26/4 21/24/4 17/17/14
f 36/28/4 22/27/14 17/17/14
f 34/30/14 23/29/14 17/17/14
f 26/19/6 43/44/6 27/32/6
f 25/18/6 27/32/6 41/33/6
f 28/34/6 39/42/8 29/35/6
f 25/18/6 29/35/6 37/36/6
f 25/18/6 30/37/8 35/38/6
f 25/18/6 31/39/6 33/40/8
f 25/18/6 32/41/8 7/7/6
f 24/31/17 16/5/18 7/7/18
f 34/30/19 24/31/17 32/41/17
f 23/29/20 34/30/19 33/40/19
f 36/28/22 23/29/20 31/39/21
f 36/28/22 35/38/22 30/37/23
f 22/27/23 30/37/23 37/36/24
f 38/26/24 37/36/24 29/35/25
f 21/24/25 29/35/25 39/42/26
f 40/25/26 39/42/26 28/34/27
f 20/23/27 28/34/27 41/33/28
f 19/20/29 42/22/28 41/33/28
f 45/43/30 19/20/29 27/32/29
f 45/43/30 43/44/30 44/45/31
f 26/19/6 66/76/8 44/45/6
f 46/46/14 64/74/14 18/21/14
f 47/47/32 46/46/31 44/45/31
f 46/46/14 47/47/14 115/49/14
f 46/46/14 48/50/33 112/51/33
f 46/46/14 49/52/34 109/53/35
f 50/54/36 106/111/33 51/55/14
f 51/55/14 103/106/89 52/56/14
f 52/56/14 100/105/90 53/57/4
f 46/46/14 53/57/4 97/58/14
f 54/59/4 94/100/91 55/60/4
f 55/60/4 91/97/92 56/61/4
f 56/61/4 88/94/93 57/62/3
f 57/62/3 85/91/94 58/63/14
f 46/46/14 58/63/14 82/64/3
f 46/46/14 59/65/14 79/66/4
f 46/46/14 60/67/14 76/68/14
f 61/69/14 73/82/95 62/70/4
f 46/46/14 62/70/4 70/71/3
f 46/46/14 63/72/14 65/73/4
f 64/74/37 65/73/38 67/75/38
f 18/21/16 64/74/37 66/76/37
f 67/75/6 68/78/6 44/45/6
f 63/72/39 68/78/41 67/75/38
f 69/77/6 71/80/6 44/45/6
f 63/72/39 70/71/40 69/77/40
f 62/70/42 71/80/45 69/77/40
f 74/79/7 44/45/6 71/80/6
f 73/82/44 72/81/44 71/80/45
f 61/69/46 74/79/46 72/81/44
f 75/83/47 77/84/8 44/45/6
f 76/68/48 75/83/50 74/79/46
f 76/68/48 60/67/49 77/84/49
f 60/67/49 79/66/51 78/85/51
f 78/85/6 80/86/8 44/45/6
f 79/66/51 59/65/53 80/86/52
f 81/87/47 83/89/47 44/45/6
f 59/65/53 82/64/54 81/87/54
f 58/63/55 83/89/55 81/87/54
f 86/88/6 44/45/6 83/89/47
f 85/91/57 84/90/57 83/89/55
f 57/62/58 86/88/58 84/90/57
f 89/92/6 44/45/6 86/88/6
f 57/62/58 88/94/60 87/93/60
f 88/94/60 56/61/62 89/92/61
f 56/61/62 91/97/66 90/95/63
f 92/96/8 44/45/6 89/92/6
f 55/60/65 92/96/65 90/95/63
f 95/98/8 44/45/6 92/96/8
f 55/60/65 94/100/67 93/99/67
f 54/59/68 95/98/68 93/99/67
f 98/101/8 44/45/6 95/98/8
f 54/59/68 97/58/70 96/102/70
f 53/57/71 98/101/74 96/102/70
f 101/103/8 44/45/6 98/101/8
f 53/57/71 100/105/73 99/104/73
f 52/56/75 101/103/75 99/104/73
f 103/106/76 102/108/76 101/103/75
f 104/107/8 44/45/6 101/103/8
f 103/106/76 51/55/78 104/107/78
f 107/109/6 44/45/6 104/107/8
f 51/55/78 106/111/79 105/110/79
f 50/54/80 107/109/80 105/110/80
f 108/112/81 110/113/85 44/45/6
f 50/54/80 109/53/83 108/112/82
f 109/53/83 49/52/83 110/113/80
f 111/114/84 113/115/87 44/45/6
f 112/51/80 111/114/80 110/113/80
f 112/51/80 48/50/80 113/115/80
f 114/116/86 116/48/96 44/45/6
f 115/49/80 114/116/80 113/115/80
f 47/47/80 116/48/80 114/116/80
f 16/5/18 2/1/1 5/3/1
f 11/11/4 9/12/88 3/6/4
